<svg id="Layer_1" data-name="Layer 1" xmlns="http://www.w3.org/2000/svg" viewBox="0 0 64 64"><defs><style>.cls-1{fill:#fff;}.cls-2{fill:#666;}.cls-3{fill:#4d4d4d;fill-rule:evenodd;}</style></defs><rect class="cls-1" x="0.5" y="0.5" width="63" height="63"/><path class="cls-2" d="M63,1V63H1V1H63m1-1H0V64H64V0Z"/><path class="cls-3" d="M58,32h0a25.86,25.86,0,0,1-1.9,10c-.21.5-.44,1-.68,1.48a26,26,0,0,1-5,6.92h0a28.78,28.78,0,0,1-2.19,2A24.32,24.32,0,0,1,45.87,54,25,25,0,0,1,32,58h0a25.86,25.86,0,0,1-10-1.91c-.5-.21-1-.43-1.48-.67a26.27,26.27,0,0,1-6.92-5.05h0a26.88,26.88,0,0,1-2-2.18A25.65,25.65,0,0,1,10,45.87,25,25,0,0,1,6,32H6A25.86,25.86,0,0,1,7.9,22c.21-.5.44-1,.68-1.48a26,26,0,0,1,5-6.92h0a28.78,28.78,0,0,1,2.19-2A24.32,24.32,0,0,1,18.13,10,25,25,0,0,1,32,6h0A25.86,25.86,0,0,1,42,7.9c.5.21,1,.44,1.48.68a26,26,0,0,1,6.92,5h0a28.78,28.78,0,0,1,2,2.19A24.32,24.32,0,0,1,54,18.13,25,25,0,0,1,58,32ZM32,10.64h.14V53.36H32a21.36,21.36,0,0,1,0-42.72Z"/></svg>