<?xml version="1.0" encoding="utf-8"?>
<!-- Generator: Adobe Illustrator 19.1.0, SVG Export Plug-In . SVG Version: 6.00 Build 0)  -->
<svg version="1.1" id="Layer_1" xmlns="http://www.w3.org/2000/svg" xmlns:xlink="http://www.w3.org/1999/xlink" x="0px" y="0px"
	 viewBox="-167 69 64 64" style="enable-background:new -167 69 64 64;" xml:space="preserve">
<style type="text/css">
	.st0{fill:#FFFFFF;stroke:#808080;stroke-linecap:round;stroke-linejoin:round;}
	.st1{fill:#808080;}
</style>
<title>filter</title>
<rect x="-166.5" y="69.5" class="st0" width="63" height="63"/>
<g>
	<polyline class="st1" points="-155.7,92.5 -139.9,105.9 -139.9,120.4 -130.1,120.4 -130.1,105.9 -114.3,92.5 -114.3,84 -155.7,84 
		-155.7,92.5 	"/>
	<path class="st1" d="M-130.1,121.5h-9.7c-0.6,0-1-0.4-1-1v-14.1l-15.5-13.1c-0.2-0.2-0.4-0.5-0.4-0.8V84c0-0.6,0.4-1,1-1h41.3
		c0.6,0,1,0.4,1,1v8.5c0,0.3-0.1,0.6-0.4,0.8l-15.5,13.1v14.1C-129.1,121-129.6,121.5-130.1,121.5z"/>
</g>
</svg>
